<svg width="242" height="242" viewBox="0 0 242 242" fill="none" xmlns="http://www.w3.org/2000/svg">
<path d="M139.989 113.466C138.917 113.466 138.039 114.313 137.98 115.377L123.159 119.49C122.605 118.37 121.456 117.599 120.13 117.599C120.079 117.599 120.027 117.6 119.976 117.603L116.408 102.735C116.973 102.376 117.349 101.743 117.349 101.023C117.349 99.9077 116.446 99 115.337 99C114.228 99 113.326 99.9077 113.326 101.023C113.326 102.079 114.134 102.948 115.16 103.039L118.728 117.907C117.91 118.284 117.265 118.979 116.954 119.835L104.995 117.91C104.836 116.953 104.007 116.221 103.011 116.221C101.902 116.221 101 117.129 101 118.245C101 119.36 101.902 120.268 103.011 120.268C103.783 120.268 104.454 119.828 104.792 119.185L116.752 121.11C116.778 121.912 117.08 122.644 117.566 123.213L105.063 139.073C104.85 138.995 104.62 138.953 104.381 138.953C103.272 138.953 102.37 139.861 102.37 140.977C102.37 142.092 103.272 143 104.381 143C105.49 143 106.392 142.092 106.392 140.977C106.392 140.571 106.273 140.193 106.068 139.876L118.572 124.017C119.038 124.262 119.568 124.401 120.13 124.401C120.654 124.401 121.15 124.281 121.593 124.066C121.607 124.091 121.621 124.116 121.639 124.139L130.123 135.686C129.894 136.014 129.76 136.413 129.76 136.843C129.76 137.959 130.662 138.867 131.771 138.867C132.881 138.867 133.783 137.959 133.783 136.843C133.783 135.728 132.881 134.82 131.771 134.82C131.556 134.82 131.349 134.854 131.155 134.918L122.671 123.372C122.654 123.347 122.634 123.326 122.614 123.305C123.171 122.698 123.511 121.889 123.511 121C123.511 120.911 123.507 120.822 123.5 120.735L138.322 116.622C138.684 117.159 139.296 117.513 139.989 117.513C141.098 117.513 142 116.605 142 115.489C142 114.373 141.098 113.466 139.989 113.466ZM114.61 101.023C114.61 100.62 114.936 100.292 115.337 100.292C115.738 100.292 116.065 100.62 116.065 101.023C116.065 101.427 115.738 101.755 115.337 101.755C114.936 101.755 114.61 101.427 114.61 101.023ZM132.499 136.843C132.499 137.247 132.173 137.575 131.771 137.575C131.37 137.575 131.044 137.247 131.044 136.843C131.044 136.44 131.37 136.112 131.771 136.112C132.173 136.112 132.499 136.44 132.499 136.843ZM103.011 118.977C102.61 118.977 102.284 118.648 102.284 118.245C102.284 117.841 102.61 117.513 103.011 117.513C103.413 117.513 103.739 117.841 103.739 118.245C103.739 118.648 103.413 118.977 103.011 118.977ZM104.381 141.708C103.98 141.708 103.653 141.38 103.653 140.977C103.653 140.573 103.98 140.245 104.381 140.245C104.782 140.245 105.109 140.573 105.109 140.977C105.109 141.38 104.782 141.708 104.381 141.708ZM118.033 121C118.033 119.837 118.974 118.89 120.13 118.89C121.287 118.89 122.228 119.837 122.228 121C122.228 122.163 121.287 123.11 120.13 123.11C118.974 123.11 118.033 122.163 118.033 121ZM139.989 116.221C139.587 116.221 139.261 115.893 139.261 115.489C139.261 115.086 139.587 114.757 139.989 114.757C140.39 114.757 140.716 115.086 140.716 115.489C140.716 115.893 140.39 116.221 139.989 116.221Z" fill="#F55B37"/>
<g filter="url(#filter0_f_1_217)">
<circle cx="121" cy="121" r="21" fill="#F55B37"/>
</g>
<defs>
<filter id="filter0_f_1_217" x="0" y="0" width="242" height="242" filterUnits="userSpaceOnUse" color-interpolation-filters="sRGB">
<feFlood flood-opacity="0" result="BackgroundImageFix"/>
<feBlend mode="normal" in="SourceGraphic" in2="BackgroundImageFix" result="shape"/>
<feGaussianBlur stdDeviation="50" result="effect1_foregroundBlur_1_217"/>
</filter>
</defs>
</svg>
