<svg width="239" height="239" viewBox="0 0 239 239" fill="none" xmlns="http://www.w3.org/2000/svg">
<path d="M134.556 103.444C130.401 99.2884 124.876 97 119 97C113.124 97 107.599 99.2884 103.444 103.444C99.2884 107.599 97 113.124 97 119C97 124.876 99.2884 130.401 103.444 134.556C107.599 138.712 113.124 141 119 141C124.876 141 130.401 138.712 134.556 134.556C138.712 130.401 141 124.876 141 119C141 113.124 138.712 107.599 134.556 103.444ZM133.643 133.643C129.732 137.554 124.531 139.708 119 139.708C113.469 139.708 108.268 137.554 104.357 133.643C100.446 129.732 98.2916 124.531 98.2916 119C98.2916 113.469 100.446 108.268 104.357 104.357C108.268 100.446 113.469 98.2916 119 98.2916C124.531 98.2916 129.732 100.446 133.643 104.357C137.554 108.268 139.708 113.469 139.708 119C139.708 124.531 137.554 129.732 133.643 133.643Z" fill="#F55B37"/>
<path d="M132.758 105.995C132.218 105.569 131.474 105.613 130.988 106.099L120.985 116.102C120.98 116.106 120.976 116.11 120.972 116.115L120.406 116.681C119.545 116.159 118.455 116.159 117.594 116.681L117.266 116.352L117.983 112.763C118.149 111.935 117.777 111.082 117.057 110.641L107.74 104.93C107.154 104.571 106.42 104.702 105.995 105.242C105.569 105.782 105.613 106.526 106.099 107.012L116.102 117.015C116.106 117.019 116.111 117.024 116.115 117.028L116.681 117.594C116.159 118.455 116.159 119.545 116.681 120.406L116.352 120.734L112.763 120.016C111.935 119.851 111.082 120.223 110.641 120.943L104.931 130.26C104.572 130.846 104.703 131.58 105.242 132.005C105.49 132.201 105.781 132.297 106.071 132.297C106.411 132.297 106.75 132.163 107.012 131.901L117.015 121.898C117.02 121.894 117.024 121.889 117.028 121.885L117.594 121.319C118.025 121.58 118.512 121.711 119 121.711C119.488 121.711 119.976 121.58 120.406 121.319L120.735 121.647L120.017 125.237C119.851 126.065 120.224 126.918 120.944 127.359L130.26 133.069C130.482 133.205 130.724 133.271 130.964 133.271C131.357 133.271 131.741 133.093 132.005 132.758C132.431 132.218 132.387 131.473 131.901 130.988L121.898 120.985C121.894 120.98 121.89 120.976 121.885 120.971L121.319 120.406C121.841 119.545 121.841 118.455 121.319 117.594L121.648 117.265L125.237 117.983C126.065 118.149 126.918 117.776 127.359 117.056L133.069 107.74C133.428 107.154 133.297 106.42 132.758 105.995ZM106.099 130.987C106.085 131.001 106.076 131.007 106.076 131.007C106.058 131.007 106.022 130.979 106.018 130.965C106.019 130.962 106.022 130.951 106.032 130.934L111.742 121.618C111.876 121.399 112.116 121.269 112.367 121.269C112.415 121.269 112.462 121.273 112.51 121.283L115.255 121.832L106.099 130.987ZM107.012 106.099C106.999 106.085 106.993 106.076 106.993 106.076C106.993 106.076 106.993 106.076 106.993 106.076C106.993 106.058 107.021 106.022 107.035 106.018C107.038 106.018 107.048 106.021 107.065 106.032L116.382 111.742C116.642 111.902 116.777 112.21 116.717 112.509L116.168 115.255L107.012 106.099ZM117.995 120.004C117.442 119.45 117.442 118.549 117.995 117.995C118.272 117.718 118.636 117.58 119 117.58C119.364 117.58 119.728 117.718 120.005 117.995C120.559 118.549 120.559 119.45 120.005 120.004C119.451 120.558 118.549 120.558 117.995 120.004ZM130.988 131.901C131.002 131.915 131.007 131.925 131.008 131.923C131.007 131.942 130.979 131.977 130.965 131.982C130.962 131.981 130.952 131.978 130.935 131.968L121.618 126.258C121.358 126.098 121.223 125.79 121.283 125.49L121.832 122.745L130.988 131.901ZM131.968 107.065L126.258 116.382C126.098 116.642 125.79 116.777 125.49 116.717L122.745 116.168L131.901 107.012C131.915 106.998 131.925 106.993 131.924 106.992C131.942 106.993 131.978 107.021 131.982 107.035C131.982 107.038 131.979 107.048 131.968 107.065Z" fill="#F55B37"/>
<path d="M119 118.354C118.83 118.354 118.663 118.423 118.544 118.544C118.423 118.664 118.354 118.831 118.354 119C118.354 119.17 118.423 119.337 118.544 119.457C118.663 119.577 118.83 119.646 119 119.646C119.17 119.646 119.337 119.577 119.456 119.457C119.577 119.337 119.646 119.17 119.646 119C119.646 118.831 119.577 118.664 119.456 118.544C119.337 118.423 119.17 118.354 119 118.354Z" fill="#F55B37"/>
<g filter="url(#filter0_f_1_207)">
<circle cx="119.5" cy="119.5" r="19.5" fill="#F55B37"/>
</g>
<defs>
<filter id="filter0_f_1_207" x="0" y="0" width="239" height="239" filterUnits="userSpaceOnUse" color-interpolation-filters="sRGB">
<feFlood flood-opacity="0" result="BackgroundImageFix"/>
<feBlend mode="normal" in="SourceGraphic" in2="BackgroundImageFix" result="shape"/>
<feGaussianBlur stdDeviation="50" result="effect1_foregroundBlur_1_207"/>
</filter>
</defs>
</svg>
