<svg width="32" height="30" viewBox="0 0 32 30" fill="none" xmlns="http://www.w3.org/2000/svg">
<path d="M13.5897 0.103144C7.68403 0.896969 2.58371 4.82431 0.749388 10.0155C0 12.1149 0 12.1672 0 21.2335C0 25.7248 0.0447396 29.4433 0.0894792 29.506C0.313177 29.8193 0.704649 29.8611 3.79168 29.8611C7.08004 29.8611 7.44914 29.8193 7.54981 29.4015C7.58336 29.2762 7.61692 25.5891 7.63929 21.1917C7.67284 13.2535 7.67284 13.1908 7.91891 12.4387C8.57882 10.4124 9.95456 8.78298 11.8001 7.81159C15.9832 5.61813 21.3855 7.10133 23.4436 11.0078C24.2824 12.6059 24.2712 12.4492 24.2712 21.411V29.3493L24.5509 29.6L24.8193 29.8611H28.13H31.4408L31.7204 29.6L32 29.3388L31.9664 20.8992C31.9217 12.6999 31.9217 12.4387 31.6868 11.4778C31.5526 10.9347 31.3177 10.1408 31.1611 9.72303C29.3492 4.79297 24.5732 1.11631 18.813 0.186705C17.4484 -0.0221958 14.8759 -0.0639763 13.5897 0.103144Z" fill="#F55B37"/>
<path d="M14.7975 15.071C12.5717 15.75 11.5315 17.9017 12.5158 19.7713C12.9184 20.5442 13.4329 21.0038 14.3165 21.3903C14.8422 21.6201 15.0883 21.6619 15.9943 21.6619C16.9338 21.6619 17.1351 21.6305 17.6944 21.3694C20.5242 20.0742 20.4459 16.4916 17.5713 15.2591C16.822 14.9353 15.5245 14.8517 14.7975 15.071Z" fill="#F55B37"/>
</svg>
