<svg width="26" height="24" viewBox="0 0 26 24" fill="none" xmlns="http://www.w3.org/2000/svg">
<path d="M10.9223 0.08288C6.17582 0.720894 2.07659 3.87738 0.6023 8.04966C0 9.73703 0 9.77901 0 17.0658C0 20.6756 0.0359582 23.6642 0.0719164 23.7146C0.251707 23.9664 0.566342 24 3.04746 24C5.69039 24 5.98704 23.9664 6.06795 23.6306C6.09492 23.5299 6.12189 20.5665 6.13987 17.0322C6.16683 10.6521 6.16683 10.6017 6.3646 9.99728C6.89499 8.36866 8.0007 7.05906 9.48398 6.27833C12.8461 4.5154 17.188 5.70748 18.8421 8.84717C19.5163 10.1316 19.5073 10.0057 19.5073 17.2085V23.5886L19.7321 23.7901L19.9478 24H22.6087H25.2696L25.4944 23.7901L25.7191 23.5803L25.6921 16.7972C25.6562 10.2072 25.6562 9.99728 25.4674 9.22495C25.3595 8.78841 25.1708 8.1504 25.0449 7.8146C23.5886 3.8522 19.75 0.897186 15.1204 0.15004C14.0237 -0.0178585 11.9561 -0.0514393 10.9223 0.08288Z" fill="#F55B37"/>
<path d="M11.8931 12.1127C10.1042 12.6584 9.26813 14.3877 10.0592 15.8904C10.3828 16.5117 10.7964 16.881 11.5065 17.1916C11.929 17.3763 12.1268 17.4099 12.855 17.4099C13.6101 17.4099 13.7719 17.3847 14.2214 17.1749C16.4957 16.1339 16.4328 13.2544 14.1225 12.2638C13.5202 12.0036 12.4774 11.9364 11.8931 12.1127Z" fill="#F55B37"/>
</svg>
