<svg width="14" height="14" viewBox="0 0 14 14" fill="none" xmlns="http://www.w3.org/2000/svg">
<path d="M8.2984e-07 11.8382C8.2984e-07 12.4355 0.18463 12.9434 0.553889 13.3619C0.923148 13.7805 1.37267 13.9895 1.90246 13.989H12.0975C12.6273 13.989 13.0769 13.78 13.4461 13.3619C13.8154 12.9439 14 12.436 14 11.8382V3.17547C14 2.57823 13.8136 2.06452 13.4407 1.63432C13.0678 1.20411 12.6201 0.989014 12.0975 0.989014H1.90246C1.3804 0.989014 0.932698 1.20411 0.559346 1.63432C0.185994 2.06452 -0.000453922 2.57823 8.2984e-07 3.17547V11.8382ZM5.09209 10.2731V4.74065C5.09209 4.68481 5.10709 4.64111 5.13711 4.60955C5.15939 4.60178 5.17804 4.5979 5.19304 4.5979L5.24898 4.60955L10.1282 7.38158C10.1583 7.41363 10.1733 7.45345 10.1733 7.50103C10.1733 7.53308 10.1583 7.56488 10.1282 7.59644L5.24898 10.3685C5.23397 10.3845 5.21896 10.3925 5.20396 10.3925C5.17394 10.3925 5.15166 10.3845 5.13711 10.3685C5.10709 10.3364 5.09209 10.3046 5.09209 10.2731Z" fill="#F55B37"/>
</svg>
