<svg width="14" height="15" viewBox="0 0 14 15" fill="none" xmlns="http://www.w3.org/2000/svg">
<path d="M7 6.25277C6.65665 6.25277 6.32101 6.35458 6.03553 6.54534C5.75005 6.73609 5.52754 7.00722 5.39614 7.32443C5.26475 7.64164 5.23037 7.99069 5.29736 8.32745C5.36434 8.6642 5.52968 8.97352 5.77246 9.21631C6.01525 9.45909 6.32457 9.62443 6.66132 9.69141C6.99807 9.7584 7.34713 9.72402 7.66434 9.59262C7.98155 9.46123 8.25268 9.23872 8.44343 8.95324C8.63419 8.66776 8.736 8.33212 8.736 7.98877C8.736 7.76079 8.6911 7.53505 8.60386 7.32443C8.51661 7.11381 8.38874 6.92243 8.22754 6.76123C8.06633 6.60003 7.87496 6.47216 7.66434 6.38491C7.45372 6.29767 7.22797 6.25277 7 6.25277ZM13.951 4.53777C13.9473 3.9972 13.8478 3.46157 13.657 2.95577C13.5165 2.58565 13.2991 2.24954 13.0192 1.9696C12.7392 1.68966 12.4031 1.47227 12.033 1.33177C11.5272 1.14099 10.9916 1.04145 10.451 1.03777C9.548 0.988769 9.282 0.98877 7 0.98877C4.718 0.98877 4.452 0.988769 3.549 1.03777C3.00843 1.04145 2.4728 1.14099 1.967 1.33177C1.59688 1.47227 1.26077 1.68966 0.98083 1.9696C0.700894 2.24954 0.483502 2.58565 0.343 2.95577C0.152225 3.46157 0.0526826 3.9972 0.049 4.53777C-4.47035e-08 5.44077 0 5.70677 0 7.98877C0 10.2708 -4.47035e-08 10.5368 0.049 11.4398C0.0565347 11.9822 0.155942 12.5195 0.343 13.0288C0.48288 13.3972 0.70009 13.7314 0.98 14.0088C1.25874 14.2904 1.59557 14.5078 1.967 14.6458C2.4728 14.8365 3.00843 14.9361 3.549 14.9398C4.452 14.9888 4.718 14.9888 7 14.9888C9.282 14.9888 9.548 14.9888 10.451 14.9398C10.9916 14.9361 11.5272 14.8365 12.033 14.6458C12.4044 14.5078 12.7413 14.2904 13.02 14.0088C13.2999 13.7314 13.5171 13.3972 13.657 13.0288C13.8476 12.5205 13.9471 11.9826 13.951 11.4398C14 10.5368 14 10.2708 14 7.98877C14 5.70677 14 5.44077 13.951 4.53777ZM12.173 10.1378C12.1505 10.5697 12.0583 10.9952 11.9 11.3978C11.7641 11.7335 11.5621 12.0386 11.3059 12.2947C11.0498 12.5509 10.7448 12.7529 10.409 12.8888C10.0027 13.0383 9.57479 13.121 9.142 13.1338H4.858C4.42521 13.121 3.99734 13.0383 3.591 12.8888C3.24387 12.7598 2.93039 12.554 2.674 12.2868C2.42037 12.0356 2.22449 11.7323 2.1 11.3978C1.94989 10.9919 1.86942 10.5635 1.862 10.1308V7.98877V5.84677C1.86942 5.41405 1.94989 4.98569 2.1 4.57977C2.229 4.23264 2.43479 3.91916 2.702 3.66277C2.95423 3.41051 3.25728 3.21483 3.591 3.08877C3.99734 2.93925 4.42521 2.85652 4.858 2.84377H9.142C9.57479 2.85652 10.0027 2.93925 10.409 3.08877C10.7561 3.21777 11.0696 3.42356 11.326 3.69077C11.5796 3.94189 11.7755 4.24526 11.9 4.57977C12.0495 4.98611 12.1323 5.41398 12.145 5.84677V7.98877C12.145 9.43077 12.194 9.57777 12.173 10.1308V10.1378ZM11.053 4.92977C10.9697 4.70366 10.8383 4.49832 10.6679 4.32792C10.4974 4.15752 10.2921 4.02611 10.066 3.94277C9.75553 3.83515 9.42854 3.78302 9.1 3.78877H4.9C4.56979 3.792 4.24275 3.85361 3.934 3.97077C3.71135 4.05033 3.50819 4.17637 3.33801 4.34051C3.16783 4.50465 3.03454 4.70314 2.947 4.92277C2.84534 5.23453 2.79568 5.56089 2.8 5.88877V10.0888C2.80694 10.4186 2.86844 10.745 2.982 11.0548C3.06534 11.2809 3.19675 11.4862 3.36715 11.6566C3.53755 11.827 3.74289 11.9584 3.969 12.0418C4.26767 12.1516 4.58196 12.213 4.9 12.2238H9.1C9.43021 12.2205 9.75725 12.1589 10.066 12.0418C10.2921 11.9584 10.4974 11.827 10.6679 11.6566C10.8383 11.4862 10.9697 11.2809 11.053 11.0548C11.1702 10.746 11.2318 10.419 11.235 10.0888V7.98877V5.88877C11.2352 5.55823 11.1735 5.23058 11.053 4.92277V4.92977ZM7 10.6628C6.64917 10.6628 6.3018 10.5936 5.97776 10.4591C5.65373 10.3246 5.35941 10.1275 5.11167 9.87915C4.86392 9.63075 4.66762 9.33592 4.534 9.01154C4.40038 8.68715 4.33208 8.33959 4.333 7.98877C4.333 7.4596 4.49001 6.94234 4.78414 6.50245C5.07827 6.06256 5.49631 5.71983 5.98533 5.51765C6.47435 5.31547 7.01236 5.26293 7.53125 5.36667C8.05015 5.47042 8.52659 5.72579 8.90028 6.10045C9.27397 6.47512 9.52809 6.95224 9.63047 7.4714C9.73285 7.99057 9.6789 8.52844 9.47544 9.01692C9.27198 9.50541 8.92815 9.92255 8.4875 10.2155C8.04684 10.5085 7.52916 10.6642 7 10.6628ZM9.8 5.83977C9.64526 5.82339 9.50206 5.75032 9.39798 5.63465C9.2939 5.51897 9.23632 5.36887 9.23632 5.21327C9.23632 5.05766 9.2939 4.90757 9.39798 4.79189C9.50206 4.67621 9.64526 4.60315 9.8 4.58677C9.95474 4.60315 10.0979 4.67621 10.202 4.79189C10.3061 4.90757 10.3637 5.05766 10.3637 5.21327C10.3637 5.36887 10.3061 5.51897 10.202 5.63465C10.0979 5.75032 9.95474 5.82339 9.8 5.83977Z" fill="#F55B37"/>
</svg>
