<svg width="14" height="14" viewBox="0 0 14 14" fill="none" xmlns="http://www.w3.org/2000/svg">
<path d="M10.4806 0H3.50833C1.57653 0 0 1.57653 0 3.50833V10.4917C0 12.4124 1.57653 13.9889 3.50833 13.9889H10.4917C12.4235 13.9889 14 12.4124 14 10.4806V3.50833C13.9889 1.57653 12.4124 0 10.4806 0ZM10.4695 5.24029C10.4695 5.318 10.4695 5.39572 10.4695 5.47343C10.4695 7.80492 8.6709 10.4917 5.37351 10.4917C4.3632 10.4917 3.41951 10.203 2.63125 9.70341C2.77558 9.71451 2.9088 9.72562 3.05313 9.72562C3.89691 9.72562 4.66297 9.44806 5.27359 8.97066C4.48533 8.95956 3.83029 8.44885 3.59715 7.74941C3.70817 7.77161 3.81919 7.78271 3.93021 7.78271C4.09675 7.78271 4.26328 7.76051 4.40761 7.7161C3.60825 7.54956 2.99762 6.83902 2.99762 5.98414V5.96194C3.21967 6.09516 3.50833 6.17288 3.79699 6.18398C3.31959 5.87312 2.99762 5.3291 2.99762 4.71848C2.99762 4.39651 3.08644 4.09675 3.24187 3.83029C4.13006 4.89611 5.44013 5.59556 6.92784 5.67328C6.89453 5.54005 6.88343 5.40682 6.88343 5.27359C6.88343 4.29659 7.68279 3.50833 8.6709 3.50833C9.1816 3.50833 9.6479 3.71927 9.98097 4.06344C10.3918 3.98573 10.7692 3.8414 11.1134 3.63045C10.9802 4.04124 10.6915 4.38541 10.3251 4.60745C10.6915 4.56305 11.0357 4.47423 11.3577 4.3299C11.1134 4.68517 10.8136 4.99604 10.4695 5.24029Z" fill="#F55B37"/>
</svg>
