<svg width="14" height="14" viewBox="0 0 14 14" fill="none" xmlns="http://www.w3.org/2000/svg">
<path d="M11.375 0H2.625C1.17492 0 0 1.17492 0 2.625V11.375C0 12.8251 1.17492 14 2.625 14H11.375C12.8251 14 14 12.8251 14 11.375V2.625C14 1.17492 12.8251 0 11.375 0ZM11.0191 7.53954H9.709V12.3878H7.52123V7.53954H6.67262V5.90638H7.52123V4.86608C7.52177 3.50215 8.08823 2.69231 9.69554 2.69231H11.3244V4.31954H10.3783C9.75262 4.31954 9.71169 4.55269 9.71169 4.98885L9.709 5.90585H11.1973L11.0191 7.53954Z" fill="#F55B37"/>
</svg>
